<?xml version="1.0" encoding="utf-8"?>
<!-- Generator: Adobe Illustrator 19.1.0, SVG Export Plug-In . SVG Version: 6.00 Build 0)  -->
<svg version="1.1" id="Layer_1" xmlns="http://www.w3.org/2000/svg" xmlns:xlink="http://www.w3.org/1999/xlink" x="0px" y="0px"
	 viewBox="-142.3 -420 2234.3 964.8" style="enable-background:new -142.3 -420 2234.3 964.8;" xml:space="preserve">
<style type="text/css">
	.st0{opacity:0.48;}
	.st1{fill:#E6E7E8;}
</style>
<g class="st0">
	<g>
		<path class="st1" d="M682.5,37.3c-14.3-15.5-39.6-6.3-56.8,0.1c-20.1,7.5-37.1,17.9-52.3,29.8c1.5-3.8,3-7.5,4.3-11.3
			c4.5-12.9-17.6-24.3-28.6-13.4c-28,27.6-56.9,54.5-86.7,80.8c-2-1.6-4.5-2.8-7.6-3.1c-30.1-3.1-59.1-1.2-87.9,3.2
			c85.7-75.5,172.8-150.7,248.9-232.9c14.4-15.5,28.2-35,20.2-55.2c-7.8-19.7-32.8-24.1-54.6-18.3c-27.1,7.3-53.1,21.5-77.5,33.4
			c-25.9,12.6-51.1,26-75.7,40.2c-50.4,29.1-98,61.4-142.2,96.6c-43.2,34.4-88,71.8-118.7,114.7c-13.2,18.4-30,44.6-9,63.6
			c17.9,16.2,47.2,15.1,71.2,12.4c11.9-1.3,23.7-3.3,35.4-5.6c-79.3,70.5-158.9,140.9-238.3,211.4c-14.9,13.2,9.4,32.8,24.4,19.6
			c91.9-81.4,183.9-162.9,275.8-244.3c31.3-6.9,62.7-12.9,94.5-12.9c-33.1,39.8-80,70.9-135.3,88.2c-20.3,6.4-11.1,33.3,9.4,26.9
			c36.9-11.6,70.7-28.3,99.7-49.2c4.8,0.8,10-0.2,14.5-3.8c34.2-27.6,67.4-56.1,99.6-85.3c-30.4,51.9-66.9,101.7-85.6,157.7
			c-4.1,12.2,12.5,21.3,25.2,15.6l0,0c2.6-2.7,4.8-5.9,6.8-9.7c2.6-5,4.6-12.1,7.9-17.8c9.8-23.7,22.4-46.5,35.9-68.9
			c1.1,7.3,5.7,13.3,17.7,14.8c18.3,2.3,40.4-19,52.4-27.9c39.2-28.8,73-62.8,99.7-100C678.9,73,696.8,52.8,682.5,37.3z
			 M309.4,133.1c-0.7,0.6-1.3,1.2-2,1.8c-3.4,0.8-6.9,1.5-10.3,2.3c-27.3,6.1-55.5,12.9-83.9,14.4c-7.6,0.4-17.1,1.1-24-1.7
			c-15-6.2,0.2-23.2,5.9-31.6c26.9-38.9,67.3-72.5,105.7-103.7c36.9-30.1,76.3-58.1,117.8-83.7c42.8-26.3,87.8-50.1,134.6-71.3
			c11.3-5.1,22.8-11.3,35-14.9c16.2-4.9,18.4,3.6,12,14.7c-12.4,21.3-36.3,40.3-54.6,58.4C470.5-8,389.4,62.2,309.4,133.1z
			 M641.3,70.4c-4.3,6.1-8.9,12.1-13.5,17.9c-4.1,6-8.1,12.1-13.4,17.6c-7.8,14.4-23.8,26.3-35.3,38.4c-7.4,7.8-16.7,18.4-28.4,23
			c-3.3,2.3-6.8,4.3-10.6,5.6c-0.7,0.2-1.2,0.4-1.9,0.5l-0.1,0.1c0,0,0,0-0.1,0l0,0c-7.6,1.6-15.1-2.1-13.6-9.6
			c0.7-3.1,2.3-5.9,4.5-8.6c-0.3-0.3-0.5-0.6-0.9-0.9c1.2-0.7,2.5-1.6,3.6-2.8c21.5-22.6,41.7-48,67.9-67.2
			c11.4-8.4,24.4-15.3,38.1-20.8c3.3-1.3,6.6-2.5,10-3.5C645.4,63.5,643.4,67.4,641.3,70.4z"/>
		<g>
			<path class="st1" d="M687.5,32.8c-14.8-15.3-38.1-10.6-56.4-4.1c-23,8.1-43.7,19.4-62.5,34c3.8,2.1,7.8,4.1,11.6,6.2
				c2.5-6.3,6.1-13.1,4.7-20c-1.2-5.4-5.2-10-10.1-13c-4.9-3.1-11.2-4.6-17.1-4c-7.9,0.8-12.6,5.2-17.8,10.3
				c-26.8,26.2-54.2,51.7-82.4,76.6c3.3,0,6.6,0,9.9,0c-6.8-5.1-14.6-5.4-23.2-5.9c-8.8-0.6-17.6-0.7-26.4-0.5
				c-17.7,0.4-35.2,2.3-52.7,4.9c2.3,3.5,4.5,7.1,6.8,10.6C435.1,72.1,498.9,16.8,559-41.9c15-14.7,29.8-29.5,44.3-44.7
				c13.1-13.6,28.1-27.4,36.3-44.1c7.5-15.2,8.3-33.4-3.7-47c-9.5-10.7-25.3-14.8-39.9-14c-19.3,1-38,9.2-55.1,16.9
				c-19.3,8.7-38.2,18.4-56.9,27.9c-38,19.2-74.8,40.3-110.3,63.2c-35.2,22.8-68.9,47.3-101.3,73.3c-30.8,24.8-61.2,50.4-87.3,79.6
				c-12,13.4-23.5,27.6-32.7,42.8c-7.8,13-14.6,29.2-8.8,44c12.9,32.8,59.4,31.5,90.1,27.7c11.1-1.4,22.2-3.2,33.1-5.3
				c-2.3-3.5-4.5-7.1-6.8-10.6c-43.9,38.9-87.9,77.8-131.8,116.8c-21.7,19.2-43.5,38.5-65.2,57.7c-10.8,9.5-21.4,19-32.1,28.5
				c-7.7,6.8-17.2,13.2-15.9,24c1,8,7.6,14.7,15.6,17.6c9,3.2,18.1,1.1,25.1-4.7c22.7-18.6,43.9-38.9,65.8-58.3
				c43.3-38.4,86.7-76.8,130.1-115.2c24.6-21.7,49.2-43.5,73.6-65.2c1-0.9,2.1-1.9,3.2-2.8c2.2-1.7,3.4-1.9,6.3-2.5
				c3.8-0.8,7.7-1.6,11.5-2.4c8-1.6,16-3.1,24-4.4c16.8-2.7,33.8-4.4,50.9-4.5c-2-3.2-4.1-6.4-6-9.6c-29.7,35.6-70.6,63.3-116,80.1
				c-9.4,3.5-21.3,5.2-27.5,13.2c-4.8,6.2-5.4,14.4-1.8,21.1c10.5,20,36.6,7.2,52.4,1.1c27.9-10.8,53.9-24.9,77.7-42
				c-1.6,0.6-3.3,1.2-4.9,1.9c13.1,1.5,21.5-7.4,30.4-14.7c10.2-8.3,20.3-16.8,30.3-25.2c19.8-16.7,39.2-33.8,58.3-51.1
				c-3.6-2.6-7.4-5.1-11-7.7c-24.4,41.5-52.3,81.4-72.5,124.9c-4.9,10.7-9.5,21.5-13.2,32.6c-2.7,8.5-0.8,16.7,7.2,22.2
				c7.4,5.1,18,6.4,26.3,2.7c9.5-4.2,12.7-17.5,16.3-25.7c11.1-25.2,23.8-49.6,38.1-73.4c-4.3-0.5-8.4-1-12.7-1.5
				c3.3,18.4,25.6,22.9,42,16.4c17.3-6.8,31.3-20.3,45.6-31.2c37.1-28.2,68.9-61.3,95.6-97.9C688.1,72,703.7,51.7,687.5,32.8
				c-5.5-6.4-15.4,2.6-9.9,9c10.5,12.3-5.9,30-13.3,40c-11.3,15.4-23.2,30.3-36.4,44.4c-13.5,14.4-28.1,27.9-43.6,40.6
				c-12.8,10.5-26.1,21.2-39.8,30.8c-6.5,4.5-14.2,9.7-22.5,10.6c-8.3,0.9-14.7-2.8-16-10.2c-1-5.5-10.1-6-12.7-1.5
				c-11.2,18.8-21.8,37.8-30.9,57.5c-4.3,9.3-7.9,18.8-12.3,28c-1.3,2.7-3.7,7.8-5.9,8.8c-2.7,1.4-7.2,0.5-9.9-0.8
				c-8-4-2.9-12.1-0.5-18.1c3.7-9.9,8-19.7,12.6-29.2c9.2-18.9,19.9-37.2,30.9-55.2c12.5-20.5,25.6-40.8,37.6-61.5
				c3.6-6.3-5.2-12.9-11-7.7c-26.1,23.7-52.7,46.8-80,69.3c-3.4,2.8-6.8,5.6-10.2,8.4c-3.4,2.8-7,6.7-11.1,8.7
				c-3.4,1.6-6.4,0.3-9.8,1.2c-3.7,0.9-7.4,4.7-10.5,6.8c-13.4,9-27.5,17-42.2,24c-14.8,7.1-30.2,13.3-46,18.1
				c-3.6,1.1-7.5,1.8-10.4-1c-2-1.8-2.9-4.7-2.3-7.1c0.8-3.9,4.2-5.6,7.9-6.8c7.4-2.4,14.6-5,21.7-7.8c14.3-5.7,28.1-12.3,41.3-20
				c28.9-16.8,54.1-38,74.8-62.8c3.3-4-1.2-9.6-6-9.6c-28.3,0.2-56.3,4.7-83.8,10.4c-3.5,0.7-7,1.4-10.4,2.2
				c-3.7,0.9-5.5,2.4-8.3,4.9c-5.3,4.6-10.4,9.3-15.7,13.9c-10.4,9.3-20.8,18.5-31.4,27.8c-41.8,37-83.6,74-125.4,111.1
				c-20.8,18.5-41.8,37-62.7,55.5c-10.2,9-20.4,18-30.6,27.1c-5.6,4.9-11.7,12.3-20,6.8c-1.9-1.2-3.7-3.2-4.2-5.4
				c-0.8-4.1,3.7-6.8,6.5-9.2c10.2-9,20.4-18.1,30.6-27.1c21-18.5,41.8-37.1,62.8-55.6c47.1-41.7,94.1-83.4,141.2-125.1
				c5.3-4.6-0.2-11.9-6.8-10.6c-18.1,3.5-36.6,6.6-55.2,6.9c-15.4,0.3-32.5-1.5-44.1-11.6c-12.1-10.6-9-25.3-2.4-37.8
				c7.4-14,17.6-27,28-39.2c23.8-28,52.1-52.7,81.1-76.4c29.5-24.2,60-47.3,91.9-68.8c32.6-21.9,66.4-42.3,101.3-61
				c17.8-9.6,35.9-18.4,54.1-27.5c17.3-8.6,34.8-17.6,53.3-24c13.7-4.7,29.3-8.8,43.7-3.4c14.5,5.5,19.2,20.2,15.3,33.3
				c-5,16.4-19.2,29.5-31.1,42c-13.5,14.2-27.3,28.2-41.3,42.1C502.1-4.4,443.2,47.4,384.4,99.1c-7.5,6.6-14.9,13.2-22.5,19.7
				c-5.4,4.8,0.3,11.6,6.8,10.6c14.8-2.2,29.7-3.8,44.8-4.3c7.4-0.3,14.7-0.3,22.1,0c3.5,0.1,7.1,0.3,10.6,0.6
				c3.5,0.3,8.3-0.1,11.2,2c3,2.2,6.9,2.6,9.9,0c23.2-20.5,45.9-41.4,68-62.7c5.3-5.1,10.5-10.2,15.8-15.3c3.5-3.4,6.3-6.2,11.7-5
				c3.2,0.7,6.7,2.7,7.9,5.6c1.9,4.4-2.5,11.1-4.2,15.2c-2.5,6.5,6.8,9.9,11.6,6.2c16.1-12.5,34-22.6,53.8-29.8
				c13.9-5.1,33.7-12.3,45.5-0.1C683.5,47.9,693.4,38.9,687.5,32.8z"/>
			<path class="st1" d="M304.4,128.6c-1.9,1.6-7.1,1.9-10.2,2.6c-4.7,1-9.4,2.1-14,3.1c-9.1,2-18.3,4-27.5,5.7
				c-17.1,3.2-35.9,6.6-53.4,5.3c-5.4-0.4-10.6-1.2-8.9-6.7c1.6-5,5.3-9.6,8.4-13.9c9-12.2,18-24.1,28.4-35.3
				c22.6-24.3,48.4-45.8,74.3-67c27.4-22.4,55.7-43.7,85.4-63.5c59.5-39.8,123.4-74.1,189.9-103.2c3.7-1.6,7.6-3.2,11.4-4.4
				c1.9-0.6,6.7-2.6,8.8-1.8c-0.7-0.3-0.2-1.3-0.4,0.3c-0.3,2.5-1.5,4.8-2.9,6.9c-7.8,13.3-19.3,24.5-30.7,35.3
				c-25.2,23.9-50,48.2-75.4,72c-53.1,49.8-108,98-162.7,146.3C318.2,116.5,311.3,122.5,304.4,128.6c-6.5,5.7,3.4,14.7,9.9,9
				C373.6,85.2,433.1,33.1,490.9-20.7c27.7-25.8,54.5-52.3,82-78.2c12.4-11.7,25.1-24,33.4-38.6c5.3-9.3,7.2-24.3-8.3-25.6
				c-8.4-0.7-17,3.2-24.5,6.3c-9,3.7-17.7,8.1-26.4,12.1c-18.1,8.2-36,16.9-53.7,25.9c-34.8,17.9-68.6,37.4-101.2,58.5
				c-32.5,21.1-63.6,43.7-93.4,67.8c-28.2,22.8-56.5,46.1-81,72.3c-11.3,12.1-21.2,24.9-30.9,38.1c-6.6,9-16.8,22.5-7.7,32.9
				c10.3,11.7,34.3,7.4,48.4,5.9c20.3-2.3,40.3-6.5,60.1-10.9c8.4-1.9,20.1-2.5,26.4-8.2C320.8,131.8,310.9,122.9,304.4,128.6z"/>
			<path class="st1" d="M635.3,67.2c-4,5.6-8.2,11-12.4,16.5c-4,5.1-7.2,10.7-11.5,15.6c-3.8,4.5-6.6,9.6-10.5,14.1
				c-4.1,4.8-8.8,9.2-13.4,13.5c-8.2,7.8-15.8,16.2-24.1,24c-4.5,4.2-9.1,7.5-14.7,10.3c-2.5,1.3-4.8,2.9-7.4,4.2
				c-2.6,1.3-5.8,1.7-8.1,3.6c2.3-0.5,4.5-1.1,6.8-1.6c0,0,0,0-0.1,0c1.6,1.5,3.3,3,4.8,4.4l0,0c-0.7-3.6-5.2-5-8.6-4.4
				c-7.9,1.3-3.8-5.5-1.2-8.8c1.9-2.4,0.8-5.7-1.1-7.7c-0.3-0.3-0.5-0.6-0.9-0.9c-0.4,3.3-1,6.7-1.4,10c5.2-3.3,8.9-7.9,12.8-12.2
				c4.3-4.6,8.4-9.3,12.6-13.9c8.6-9.3,17.1-18.6,26.4-27.3c18.8-17.6,40.4-32,65.8-40.3c-2.6-3.1-5.3-6.2-7.9-9.3
				C639.4,60.3,637.6,63.8,635.3,67.2c-4.7,7,7.4,13.4,12.1,6.4c2.3-3.3,4.2-6.9,6.3-10.3c2.7-4.5-1.9-11.3-7.9-9.3
				c-25.9,8.4-48.5,22.3-68,39.9c-9.4,8.5-18.2,17.7-26.8,27c-4.5,4.8-8.9,9.7-13.3,14.6c-4,4.3-8,10.3-13.1,13.5
				c-4,2.5-4.5,6.7-1.4,10c0.3,0.3,0.5,0.6,0.9,0.9c-0.3-2.6-0.8-5.1-1.1-7.7c-4.7,6.1-8,14.4-3.2,21.3c4.4,6.3,12.7,7.4,20.2,6.2
				c-2.9-1.5-5.7-3-8.6-4.4l0,0c0.3,2,2.7,4.1,4.8,4.4c1.2,0.2,2.5,0.3,3.7,0c0.9-0.2,1.6-0.6,2.4-1.1c1.1-0.8,1-0.6-0.4,0.5
				c3.2-0.5,6.7-2.7,9.4-4.3c5.5-3.3,11.2-6,16.3-10c10-7.8,18-17.8,27.2-26.4c4.8-4.6,9.8-9.1,14.2-14c4.4-4.8,7.7-10.1,11.5-15.3
				c8.8-11.9,18.1-23.4,26.7-35.4C652.2,66.7,640.1,60.3,635.3,67.2z"/>
		</g>
	</g>
	<g>
		<path class="st1" d="M1891.7-6.8c-55.6-37.7-148.2-36.9-216-29.7c-81.6,8.6-158.9,32.1-232.7,60.6c-20.2,7.8-2.2,31.7,17.9,24
			c106.8-41.2,230.6-74.7,350-53.9c23.4,4.1,48.6,10.5,65.1,25.4c19.2,17.4,21.4,42.6,13.4,64.1c-15.5,41.7-66.7,69.6-111.3,90
			c-78.2,35.9-170.7,56.5-262.2,62.3c33.5-73.6,80.5-143.1,140.3-205.4c13.4-14-7.9-32-24.8-19.6c-67.9,49.7-138.3,97.1-211.2,141.9
			c-17.6,10.8,0.1,35,17.9,24c40.4-24.9,80.1-50.4,118.9-76.7c-31.5,43.7-58,89.7-78.8,137.4c-15,0.3-30.1,0.2-44.9-0.4
			c-52.6-1.9-120.6-8.2-161.4-38.2c-9.1-6.7-15.6-14-20-21.9c1.1-1,2.3-1.9,3.3-3c5.3-5.3,5.9-13.9-2-18c-2.9-1.5-5.8-1.8-8.8-1.6
			c-0.5-4.2-0.4-8.4,0.4-12.5c2.2-24.9,16.9-50.5,33.7-70.7c34.2-40.8,80.3-76,131.1-103.3c25.3-13.6,52.1-25.5,80.1-35.2
			c10.6-3.7,89.4-29.8,87.8-12.7c-1.8,17.9,33,17.5,34.8-0.3c2.5-25.5-29.3-37.3-56.5-33.8c-31.4,4-62.7,14.9-91.4,25.5
			c-59.5,21.8-114,52.8-159.5,90.5c-45,37.1-91.2,84.2-94.9,138c-0.7,9.3,0.2,18.1,2.2,26.4c-14.6,8.9-29.5,17.5-44.8,25.8
			c-13.9,7.6-28.2,15-42.6,22.1c-6.1,3-15.1,9.2-22.6,10.1c-12.8,1.4-10.3-5.1-8.4-13.4c12.5-57.1,51.4-111,85.6-161.3
			c42.7-62.7,89.1-123.8,136.3-184.4c102-8.4,204.2-16,306.5-22.5c22.2-1.4,21.9-29.4-0.3-28c-94.4,6.1-188.6,13-282.8,20.6
			c25.5-32.5,51-65,76.1-97.6c11.9-15.3-18.4-29.1-30.2-13.9c-29.6,38.4-59.7,76.6-89.5,115c-31.9,2.7-63.9,5.4-95.9,8.3
			c14.6-23.3,29.3-46.6,44.1-69.8c10.4-16.3-17.3-28.3-30.2-13.9l-79.8,89.7C977.2-132.1,820.9-115.3,665-96.2
			c-22.1,2.7-12.3,29.6,9.7,26.9c143.6-17.5,287.7-33.2,432-46.9c-41.8,47.1-83.7,94.2-125.5,141.3c-38.4,43-75.4,86.8-115,128.7
			c-6.7,7-21.6,27.6-31.9,30.7l-4,3.2c-2.6-4-2.7-8-0.1-11.9c1.5-5.6,5.3-11.8,7.8-17.2c10-21.8,19.9-43.6,29.8-65.4
			c0.8-0.7,1.5-1.4,2.3-2.1c4.1-3.9,5-8.2,4-12.1c3.8-15.2-27.1-20.8-34.5-4.9c-0.7,1.5-1.4,3.1-2.2,4.6
			c-42.8,39.7-89.8,76.5-140.9,109.2c-4.9,3.2-10,6.2-15,9.3c5.6-7.8,9.8-17.5,15.6-24.8c17.7-21.9,40.8-40.6,67.4-55.5
			c15.1-8.5,7.2-23.9-7.1-25.4c-13.1,4.8-26.2,9.5-38.6,15.5c-2.7,1.3-5.3-0.2-5.8-2.1c-0.8,0.3-1.6,0.6-2.4,0.8
			c0.8-0.7,1.5-1.3,2.3-2c0.1-0.7,0.3-1.3,1-1.9c16.5-14.5,35.8-26.8,52-41.4c11-9.8,21-20.3,33-29c3.8-3.1,7.6-6.1,11.5-9.2
			c18.9-14.6,38.3-30.5,59-45.2c0.4-3.3-0.1-6.5-2.3-9.7c-6.6-9.4-18.5-7.7-30.7-3.2c-13.7,10-27,20.3-40.2,30.3
			c-36.5,28-71.8,57.1-105.6,87.3c-7.7,6.2-15.3,12.5-22.6,18.9c-6.5,5.6-14.5,11.7-17.9,19.1c-1.3,2.1-1.9,4.2-1.8,6.3
			c-1.5,14,13.5,22.1,29.6,20c-5,5.4-9.8,10.9-14.3,16.7c-12.6,16.5-48.8,70,0.8,72.8c18.2,1,36.5-15.2,49.7-23.5
			c18.4-11.7,36.3-23.8,53.8-36.4c12.6-9.1,25-18.5,37.1-28.2c-3,7-5.8,14-8.3,21.1c-7,19.6-0.7,48.7,31.8,48.5
			c29.2-0.1,51.7-32,66.8-48.1c23.3-24.8,45.3-50.4,67.7-75.6L1113.4-76c-56.3,92.6-110.5,186-162.5,280.2
			c-9,16.3,21.1,30.3,30.2,13.9c63.5-114.9,130.2-228.6,200-341.2c30.4-2.8,60.7-5.4,91.1-8C1235.8-84,1200-36.6,1166.1,11.7
			c-33.4,47.3-66.6,95.9-89.9,147c-9.3,20.5-23.2,48.1-18,70.3c4.4,19,26.2,27.8,48.7,23.4c30.3-5.9,59.3-25.6,84.5-39.5
			c11.3-6.2,22.4-12.7,33.4-19.3c18.1,26,50.9,44.5,89.5,55c48.7,13.2,100.8,17.7,152.5,17c-10.5,27.2-19.3,54.9-26.1,83
			c-4.3,17.6,29.3,24.8,33.6,7.1c7.6-31,17.4-61.6,29.5-91.5c11.6-0.7,23.3-1.6,34.8-2.7c70.2-6.7,139.5-19.8,204.4-42.6
			c59-20.7,122-49.6,159.2-93.3C1935.7,86.1,1940.9,26.5,1891.7-6.8z"/>
		<g>
			<path class="st1" d="M1895.2-12.3c-33.9-22.7-77.1-30.8-118.4-33.5c-44.3-2.9-89.3,0.4-133.2,7c-52.9,8-104.6,22-154.7,39.2
				c-12.5,4.3-25,8.8-37.4,13.5c-8.7,3.3-19.5,5.9-23.3,14.7c-6,14.5,10.5,28.1,25.8,27.3c5.3-0.3,9.8-2.2,14.6-4
				c6.1-2.3,12.3-4.6,18.5-6.9c11.9-4.3,23.8-8.4,35.8-12.4c24.7-8.1,49.8-15.3,75.3-21.3c51.1-12,103.9-18.9,156.8-16.7
				c25.3,1.1,51.1,3.9,75.6,10.3c21.7,5.7,44.3,15.9,52.4,36.5c15.4,38.5-18.7,74.5-50.4,95.6c-37.7,25-81.9,43.2-125.6,57.3
				c-49.4,15.9-100.8,26.4-152.8,32.1c-12.8,1.4-25.7,2.5-38.6,3.3c2.2,2.7,4.5,5.4,6.7,8c21.1-46.1,47.4-90.2,78.2-131.5
				c15.9-21.4,33.1-42,51.5-61.8c7-7.6,16.3-14.8,14.8-25.7c-1.1-8.2-8-14.9-16.6-17.3c-12-3.3-21,2.7-29.7,9.2
				c-11.9,8.6-23.8,17.2-35.8,25.7c-23.9,16.9-48.1,33.5-72.5,49.8c-24.4,16.2-48.9,32.1-73.8,47.7c-5.9,3.7-12,7.5-18,11.2
				c-4.7,2.9-9.4,5.7-12.3,10.5c-4.1,7-2.7,15.6,2.3,21.9c5.9,7.4,16.2,10.5,25.8,7.3c6.9-2.3,13.1-7.3,19.2-11
				c7-4.4,14-8.8,21.1-13.2c28.2-17.9,56.2-36.1,83.8-54.8c-3.2-2.9-6.4-5.8-9.5-8.7c-31.5,43.8-58.2,90.3-79.6,138.9
				c2.2-1.6,4.5-3.1,6.7-4.7c-40.7,0.7-82.4-0.5-122.5-7.6c-35.6-6.3-79.7-18.3-97.8-49.7c-0.3,2.6-0.8,5.1-1.1,7.7
				c6.5-5.5,11.3-12.9,8.6-21.2c-2.7-8.3-11.9-12.5-21-12.2c2.3,2.1,4.6,4.2,7,6.4c-2.1-19.6,6.5-40.2,16.7-57.1
				c10.2-16.8,23.5-31.8,37.7-45.8c29.2-28.9,63.2-53.5,99.8-74c30.8-17.2,63.6-31.7,97.8-42.5c11.1-3.5,22.3-6.8,33.6-9.5
				c10.1-2.5,21.2-5.4,31.7-4.8c1,0.1,1.4,0.1,1.3,0.1c0.3,0,2.4,0.3,0.9,0.1c2.5,0.3-1.5-0.6-0.3-1c-0.7,0.2,0.2,5.2,0.7,6.8
				c0.9,2.6,2.5,5,4.6,6.9c8.2,7.6,22.9,7.6,32.5,2.2c12.7-7.2,13.2-22.6,7-33.9c-6.7-12.3-21.7-19.4-36.1-21.7
				c-19.3-3.2-39,1.1-57.6,5.8c-22.4,5.7-44.1,13.4-65.5,21.5c-39.9,15.1-77.9,34.3-112.8,57.5c-33.5,22.2-65.1,47.9-91.5,77
				c-25,27.5-45.9,59.7-49,96c-0.9,10,0,20.1,2.3,29.9c1.1-2.4,2.1-4.8,3.2-7.2c-32.1,19.5-65.6,38.3-99.8,54.6
				c-1.6,0.8-3.3,1.6-5.2,2c-0.9,0.2-4.4,0.2-4.9,0.6c-0.2,0-0.5,0-0.8-0.1c0.9,0.4,1.3,1.1,1.4,1.9c0,0,0.1-2.2,0.1-2.4
				c1-7.4,3.4-15,5.7-22.1c4.8-15.6,11.3-30.7,18.9-45.3c15.9-30.9,35.9-59.8,55.6-88.7c20.8-30.5,42-60.6,64.1-90.4
				c25.5-34.5,51.7-68.6,78-102.5c-2,1-4.1,2.1-6,3.1c95.5-7.9,190.9-15,286.5-21.2c14.8-1,34.2,0.7,41.4-14.1
				c4.7-9.8,0.5-21.8-10.4-26.2c-8.1-3.2-17.7-1.3-26.2-0.8c-12,0.8-24,1.6-36,2.4c-23.6,1.6-47.2,3.2-70.8,4.9
				c-53.8,3.9-107.4,8-161.2,12.4c2,3.2,4.1,6.4,6,9.6c15.8-20.2,31.7-40.5,47.5-60.7c7.9-10.1,15.8-20.2,23.6-30.4
				c5.2-6.6,10.8-13.2,7.8-21.7c-4.5-13.1-23.9-18.4-36.5-12.2c-9,4.4-14.4,14.7-20,22c-8.1,10.5-16.3,21-24.6,31.5
				c-17.9,22.9-35.8,45.7-53.5,68.6c2-1,4.1-2.1,6-3.1c-31.9,2.7-63.9,5.4-95.9,8.3c2,3.2,4.1,6.4,6,9.6
				c9.8-15.6,19.5-31.1,29.3-46.6c4.5-7.1,9.1-14.2,13.6-21.3c3.1-5,5.5-10.1,4.1-15.9c-4.5-18.6-32.4-19.9-44.3-7.2
				c-19.6,20.9-38.1,42.8-57.1,64.2c-7.5,8.4-14.9,16.7-22.3,25.1c1.6-0.6,3.3-1.2,4.9-1.9c-136.3,12.8-272.3,27.2-408.1,43.3
				c-16.9,2-33.8,4-50.7,6.1c-10.2,1.2-22.1,1.5-27.3,11c-3.8,6.9-1.6,15.4,3.5,21.2c6,6.8,15.4,9.5,24.7,8.4
				c67.4-7.6,134.7-16,202.2-23.4c76.1-8.3,152.3-16.1,228.6-23.4c-1.6-3.6-3.3-7.2-4.9-10.8c-39.7,44.7-79.6,89.5-119.3,134.2
				c-38.7,43.6-76.3,88-116.2,130.6c-7.2,7.7-13.7,15.9-21,23.6c-3.3,3.5-6.9,7.5-11.4,9.9c-3.2,1.7-5.6,3.3-8.3,5.5
				c3.6,0.4,7.4,0.9,11,1.3c-2.6-4.6,3-13.3,5.2-17.7c3.1-6.2,5.9-12.5,8.8-18.8c6-13.3,12.1-26.6,18.2-39.9
				c1.4-3.1,2.7-6.2,4.2-9.2c1.2-2.5,3.1-4,4.8-6.2c1.8-2.3,3-4.9,3.6-7.6c0.2-1,0.3-2.2,0.3-3.2c0-0.3-0.4-4.9-0.4-2.4
				c0-4.2,0.3-7.4-2-11.3c-2-3.1-5.2-5.6-8.6-7.2c-7.4-3.5-16.6-3.9-24.1-1c-3.8,1.4-7,3.6-9.7,6.5c-1.6,1.8-2.5,3.7-3.6,5.8
				c-1.6,3.1-4.1,5.2-6.7,7.7c-21.2,19.3-43.2,37.8-66.2,55.4c-26.2,20.1-53.5,38.9-82,56.3c3.2,2.9,6.4,5.8,9.5,8.7
				c5.4-7.8,9.2-16.5,15-24c5.8-7.6,12.7-14.6,19.9-21.2c6.9-6.4,14.4-12.5,22.2-18c8-5.7,16.7-10.3,24.9-15.7
				c12.5-8.1,13.4-23.6,0.7-32c-2.9-1.9-6-3.2-9.4-3.8c-5.2-1-9.3,1.3-13.9,3c-4.9,1.8-9.8,3.7-14.7,5.6c-2.9,1.1-5.7,2.3-8.6,3.5
				c-1.4,0.6-2.9,1.2-4.2,1.9c-2.6,0.5-2.7,1.2-0.4,2.1c-1.2-2.3-5.2-3.9-7.9-2.9c-0.8,0.3-1.6,0.6-2.4,0.8
				c2.3,3.5,4.5,7.1,6.8,10.6c2.7-2.4,4.5-5,7.4-7.4c4.1-3.4,8.3-6.8,12.6-10c7.7-5.9,15.6-11.6,23.2-17.6
				c15.8-12.5,29.4-27,45.3-39.3s31.5-25,47.5-37.3c4-3,7.9-6,11.9-8.9c3.5-2.6,9.9-5.7,12.3-9.4c4.1-6.5-1.3-16.5-6.8-20.9
				c-6-4.9-14-5.8-21.7-4.7c-4,0.6-7.8,1.7-11.6,3c-4.7,1.7-8.4,5.2-12.3,8.1C806-21.7,789.3-8.9,772.9,4.1
				c-33,25.9-64,53.7-96.1,80.4c-8.3,6.9-17,13.7-24.6,21.3c-6.4,6.4-11.3,13.8-11.1,22.6c0.4,17.4,19.6,25.9,36.8,24.1
				c-1.6-3.6-3.3-7.2-4.9-10.8c-11.3,12.2-21.6,25.3-29.6,39.6c-6.6,11.9-13.3,26.1-10.6,39.7c2.9,14.9,19.1,21.6,34.5,21.1
				c11.6-0.4,22.3-5.7,31.7-11.6c10.3-6.6,20.3-13.7,30.6-20.3c27.9-18.1,54.8-37.4,80.5-57.9c-3.8-2.1-7.8-4.1-11.6-6.2
				c-8.3,19.5-18.2,42.6-3.8,62.2c13.8,18.8,41.8,18.8,61.2,7.6c21.4-12.4,36.2-33.1,52.3-50.5c20.4-22.1,40-44.9,60-67.4
				c35.8-40.2,71.4-80.4,107.2-120.7c14.4-16.1,28.6-32.3,43-48.4c-3.6-2.6-7.4-5.1-11-7.7c-28.6,47.2-56.8,94.7-84.6,142.5
				c-13.8,23.8-27.5,47.7-41,71.7c-6.8,12-13.5,24-20.2,36c-3.4,6-6.7,12-10,18c-2.9,5.1-6.6,10.3-8.3,15.8
				c-4.9,14.7,11.2,28,26.7,26.9c10-0.7,15.3-6.8,19.4-14.4c6.6-12,13.3-23.9,20-35.8c26.8-47.8,54.1-95.3,81.9-142.5
				c31.4-53.3,63.3-106.2,95.9-158.9c-2,1-4.1,2.1-6,3.1c30.4-2.8,60.7-5.4,91.1-8c-2-3.2-4.1-6.4-6-9.6
				c-55.1,71.4-110.5,143.4-157.8,219.5c-11.5,18.5-22.3,37.4-31.8,56.8c-8.3,17-17,34.4-22.4,52.3c-4.6,15.5-7.5,34.8,3.2,48.8
				c9.8,12.9,27.5,18.1,44.1,16.5c22.8-2.2,44.2-13.3,63.4-24c21.3-11.9,42.6-24,63.4-36.5c-3.2-0.8-6.4-1.5-9.5-2.3
				c22.4,31.6,60.7,49.4,99.4,59.4c48.3,12.4,98.8,16.3,148.8,15.7c-2.2-2.7-4.5-5.4-6.7-8c-7.4,19.2-13.9,38.6-19.5,58.2
				c-2.6,9-6.4,18.8-7.1,28.1c-0.4,5.3,1.6,10.5,5.7,14.4c7.6,7.3,20.8,9.9,30.8,5.5c5.3-2.3,9-6.5,10.8-11.6
				c3.1-8.9,4.7-18.4,7.4-27.4c6.4-22.1,13.9-43.8,22.5-65.2c-2.2,1.6-4.5,3.1-6.7,4.7c91.5-5.5,182.5-22.3,267.1-55.1
				c37.4-14.5,74-32.1,105.1-56.1c27.2-20.9,50.1-47.5,56.9-80C1940.1,44,1926.9,9.6,1895.2-12.3c-7.1-4.9-14.2,6.1-7,11
				c25.5,17.6,36.6,46,31.7,74.5c-5.4,30.9-26.3,55.6-51.7,75.6c-28.9,22.7-63.2,39.4-98,53.2c-38.4,15.3-78.5,27.3-119.3,36.1
				c-48.4,10.5-97.8,16.9-147.4,19.8c-3.3,0.2-5.6,1.9-6.7,4.7c-8.1,20.4-15.5,41.1-21.6,62.1c-2.9,9.7-4.7,19.8-7.9,29.5
				c-1.4,4.2-4.7,5.9-9.5,5.5c-3.8-0.3-8.7-2-10.3-5.5c-1.2-2.6,0-5.5,0.7-8.1c1.2-5,2.6-10.1,4-15.1c5.9-21.5,13.1-42.7,21.1-63.6
				c1.5-3.9-2.4-8.1-6.7-8c-47.3,0.6-94.7-2.9-140.4-14.1c-36.6-9-74.3-24.6-95.6-54.7c-2-2.8-6.3-4.2-9.5-2.3
				c-17.3,10.4-35,20.2-52.4,30.3c-16.7,9.6-33.8,19.5-52.7,25.2c-14.8,4.4-33.9,6.6-45.3-5.4c-11.5-12-6.3-31.5-1.6-45.1
				c12.2-36.1,32-70.7,52.4-103.4c21.7-34.8,45.6-68.5,69.8-102c28.2-39,57.3-77.4,86.8-115.6c3-3.8-0.9-10-6-9.6
				c-15.6,1.3-31.2,2.7-46.7,4c-7.4,0.6-14.8,1.3-22.2,2c-3.7,0.3-7.4,0.7-11.1,1c-3.8,0.3-9.2,0.1-12.9,1.2
				c-5.7,1.8-8.7,10.1-11.4,14.6c-4.1,6.5-8,13-12.1,19.5c-7.4,12.1-14.8,24.1-22.1,36.2c-29.8,49.3-59.3,98.8-88,148.6
				c-14,24.4-28,48.8-41.8,73.3c-7.1,12.6-14.2,25.2-21.2,37.8c-2.6,4.8-4.9,11.6-8.8,15.7c-2.1,2.2-4.8,2.8-8,2.3
				c-6-0.9-11.4-5.8-9.1-11.5c2.4-6.2,6.7-12.2,10-18c3.5-6.3,7-12.7,10.6-19c14-25,28.2-49.9,42.5-74.8
				c32.5-56.5,65.6-112.6,99.5-168.3c3.6-6-5.8-13.5-11-7.7C1075.6-43.7,1043-7,1010.4,29.7c-44.2,49.7-88.5,99.3-132.8,148.9
				c-13.9,15.7-37.6,41.1-62.9,29.7c-24.8-11.2-10.1-42.6-3.2-59c2.7-6.4-6.9-9.9-11.6-6.2c-20.1,16-40.8,31.2-62.2,45.7
				c-10.3,7-21,13.5-31.3,20.5c-8.1,5.5-15.9,11.5-24.8,15.8c-9.8,4.7-31.4,7.9-35.2-5.5c-2.9-9.9,3.3-21.9,8-30.5
				c7.6-13.9,17.3-26.6,28.3-38.5c3.4-3.7,1.6-11.6-4.9-10.8c-7.1,0.8-16.2,0.2-20.7-5.6c-5.3-6.9,0.3-14.9,5.7-20.1
				c14.9-14.6,32.3-27.5,48.1-41.3c33.1-29,67.7-56.5,102.8-83.4c4.8-3.7,9.7-7.4,14.6-11.1c4.2-3.1,8.4-7.5,13.5-9.2
				c8.6-3,21.7-3.7,20.6,8c0.7-1.5,1.3-3,2.1-4.5c-14.8,10.6-29.2,21.8-43.5,33c-13.6,10.7-27.9,21-40.8,32.5
				c-13.1,11.5-25.5,23.4-39.4,34c-6.6,5-13.3,9.9-19.8,15c-3.4,2.6-6.7,5.3-10,8.1c-1.4,1.2-2.6,2.4-3.8,3.8
				c-0.5,0.6-0.9,1.2-1.1,2c0.7-1.2,0.4-1.1-0.8,0.2c-4.7,4.2,0.1,13,6.8,10.6c0.8-0.3,1.6-0.6,2.4-0.8c-2.6-1-5.3-1.9-7.9-2.9
				c4.6,8.5,13.5,5.2,20.6,2c4.5-2,9.2-3.9,13.8-5.8c4.7-1.8,10.8-5.2,15.7-5.9c0-0.2,0-0.4,0-0.6c1,0.2,2,0.4,2.9,0.7
				c1,0.4,2.1,1,2.9,1.6c1.9,1.5,3.3,3.6,3,5.9c-0.4,2.4-2.6,4-4.7,5.3c-4.1,2.7-8.6,4.9-12.7,7.6c-15,9.5-29.1,20.4-41.5,32.7
				c-6,6-11.9,12.2-16.8,18.9c-5.5,7.4-9.2,15.7-14.4,23.3c-3.6,5.2,3.7,12.3,9.5,8.7c46.4-28.4,90.1-60.6,130.7-95.6
				c4.7-4,9.3-8.1,13.8-12.2c4.9-4.4,11.5-8.9,14.6-14.5c1.6-3,2.3-6,5.6-7.8c2.7-1.6,6.3-2,9.4-1.6c7,0.9,8,4,8,9.7
				c0,5.2-5,8.2-7.2,13c-3,6.5-5.9,13-8.9,19.4c-6.4,14-12.7,28-19.1,41.9c-5.3,11.4-14.9,23.8-7.9,36.1c2.2,3.8,7.8,3.9,11,1.3
				c1-0.8,2.4-1.6,3.2-2.6c1-1.1,1.1,0.6-1.3,0.7c0.9,0,2.3-0.9,3.2-1.3c3.8-2,7.4-4.9,10.4-7.8c6.9-6.5,12.6-14,18.9-21.1
				c18.5-21,38.1-41.3,56.6-62.3c39.3-44.5,78.5-89.1,117.8-133.4c22.5-25.3,45-50.6,67.5-75.9c3.3-3.7,1.8-11.5-4.9-10.8
				c-99.3,9.5-198.6,19.8-297.7,31.1c-24.7,2.8-49.3,5.7-74,8.6c-12.3,1.5-24.7,2.9-37,4.4c-6.1,0.7-12.3,1.5-18.4,2.2
				c-3.8,0.5-7.9,1.3-11.7,0.3c-4.1-1.1-8.3-4.7-8.2-8.8c0.1-5.7,8.4-5.4,12.8-5.9c24.8-3,49.5-6,74.3-8.9
				c99.1-11.6,198.3-22.3,297.6-32.2c25.2-2.5,50.5-4.9,75.8-7.3c5.8-0.5,14.6,0.3,19-3.6c1.4-1.3,2.6-3,4-4.4
				c13.3-14.9,26.6-29.9,39.8-44.8c11.5-13,22.9-26,34.6-38.9c4.7-5.2,15.1-9,20.5-1.8c1.1,1.5,1.2,3.1,0.8,4.8
				c-1.3,4.7-5.8,9.5-8.4,13.7c-6.1,9.7-12.3,19.4-18.4,29.1s-12.2,19.4-18.3,29.1c-2.4,3.9,0.5,10,6,9.6c30.3-2.7,60.6-5.3,91-7.9
				c2.7-0.2,6,0,8.4-1.3c2.6-1.4,4.4-4.8,6.1-6.9c4.6-5.9,9.1-11.8,13.7-17.6c8.9-11.4,17.9-22.9,26.8-34.3
				c8.9-11.4,17.9-22.9,26.8-34.3c4.1-5.3,8.1-10.5,12.3-15.8c2.9-3.7,5.7-9.4,10.6-11.2c4.7-1.7,13.5-0.1,15.5,4.9
				c1.3,3.4-2.3,6.6-4.3,9.1c-4.5,5.8-9,11.7-13.6,17.5c-19.9,25.5-39.8,50.9-59.7,76.4c-3,3.8,1,10,6,9.6
				c88.4-7.2,176.9-13.7,265.4-19.5c6.7-0.4,30.3-5.5,27.1,7.4c-1,4-4.6,6.1-8.9,6.7c-10.3,1.5-21.2,1.4-31.6,2.1
				c-44.9,3-89.8,6.1-134.6,9.5c-44.4,3.3-88.9,6.8-133.2,10.4c-4.5,0.4-9.7-0.1-12.9,3.1c-3.4,3.4-6.1,7.8-9,11.6
				c-6.4,8.2-12.7,16.4-19,24.6c-12.6,16.4-25.1,32.9-37.5,49.5c-24.5,32.7-48.3,65.8-71.2,99.4c-21.1,30.9-42.8,61.6-60,94.5
				c-8.4,16.2-16,32.9-21.4,50.1c-2.3,7.4-4.3,14.9-5.8,22.5c-1,5.1-1.5,10.6,3.2,14.4c12.4,10,32.6-5,43.5-10.4
				c18.9-9.4,37.5-19.3,55.7-29.7c9.2-5.2,18.2-10.6,27.2-16.1c2.7-1.6,3.8-4.3,3.2-7.2c-8.4-35.8,9-71.3,31.5-99.9
				c23-29.3,53-54.9,83.8-77.3c32-23.3,67.4-43,104.6-59c19.5-8.4,39.7-15.8,60-22.4c19.9-6.5,41.6-13.3,62.8-14.4
				c13.6-0.7,30.5,2.2,39.4,12.6c6.3,7.3,7.7,20.6-4.8,22.5c-3.3,0.5-8.2,0.2-10.5-2.5s-0.4-6.9-2.4-10.1c-4.3-6.7-14.5-6.7-21.9-6
				c-22.1,1.9-43.7,8.8-64.4,15.5c-33.5,10.8-65.8,25-96.2,41.8c-35.1,19.3-67.9,42.4-96.6,69.2c-27.7,25.9-54.6,56.4-63.6,92.3
				c-2.2,8.8-3.8,18.3-2.9,27.3c0.3,3.3,3,6.5,7,6.4c10.6-0.3,7.9,7.1,2.5,11.7c-2.3,2-2.5,5.3-1.1,7.7c14.9,25.8,46.1,40,75.4,48.5
				c30.6,8.8,63.1,12.2,95,14c20.6,1.1,41.3,1.5,61.8,1.1c3.4-0.1,5.6-2,6.7-4.7c20.8-47.6,47.3-93,78.1-135.9
				c3.6-5.1-3.8-12.5-9.5-8.7c-21.8,14.7-43.8,29.2-65.9,43.4c-11,7-21.9,14-32.9,20.9c-5.7,3.6-11.4,7.1-17.1,10.6
				c-3.3,2-6.6,4.5-10.8,3.5c-5.5-1.3-8.8-7.8-5.7-12.3c2.6-3.8,8.7-6.2,12.6-8.6c5.7-3.5,11.3-7,17-10.6
				c22.2-14,44.1-28.2,65.9-42.6c21.4-14.2,42.6-28.7,63.5-43.3c10.6-7.4,21.2-14.9,31.7-22.5c5-3.6,10-7.2,15-10.9
				c4.4-3.2,9.3-8.4,15.1-9.1c6-0.7,13.1,4,11,10c-1.5,4.2-6.7,8.1-9.9,11.4c-4.1,4.4-8.1,8.9-12.2,13.4
				c-15.6,17.5-30.3,35.6-44.1,54.2c-30.7,41.5-56.7,85.8-77.8,132.1c-1.6,3.7,2.6,8.3,6.7,8c100.6-6.5,201-29.5,289.6-74.6
				c35.8-18.2,73.2-42,89-77.9c7.7-17.6,9-38,0.8-55.7c-9-19.2-28.1-31-48.9-38.1c-22.7-7.7-47.5-10.9-71.4-12.9
				c-26.2-2.2-52.6-2.1-78.8-0.1c-52,4-103.3,15-152.7,29.9c-24.6,7.4-48.8,15.8-72.9,24.8c-7.7,2.9-17.3,8.8-25.2,3
				c-5.5-4.1-4.6-8.6,1.5-11.2c23.7-10,48.7-18,73.4-25.8c25.1-7.9,50.6-14.9,76.4-20.7c46-10.2,93.3-16.4,140.7-17.1
				c42.2-0.6,87.3,2.5,126.2,19.1c8.9,3.8,17.3,8.3,25.2,13.6C1895.4,3.5,1902.4-7.5,1895.2-12.3z"/>
		</g>
	</g>
	<g>
		<path class="st1" d="M1077.9,287.6c-129.5,6.7-259,13.4-388.3,20c-21.8,1.1-21.5,29.1,0.3,28c129.5-6.7,259-13.4,388.3-20
			C1100.1,314.4,1099.7,286.5,1077.9,287.6z"/>
		<g>
			<path class="st1" d="M1077.9,281.2c-69.1,3.6-138.1,7.1-207.3,10.7c-34.2,1.8-68.4,3.5-102.6,5.3c-17.4,0.9-34.9,1.8-52.3,2.7
				c-8,0.4-16,0.8-24,1.2c-5.4,0.3-10.4,1-15,3.7c-15.5,9.2-12.7,32,5.6,36.5c6.6,1.6,13.9,0.3,20.6,0c8.8-0.5,17.4-0.9,26.2-1.4
				c17.1-0.9,34.2-1.8,51.2-2.6c68.7-3.5,137.5-7.1,206.2-10.6c18.9-1,37.9-2,56.7-2.9c9.4-0.5,18.9-1,28.3-1.5
				c6.8-0.3,13.5-0.4,19.4-3.9c8-4.7,12-14,9.7-22.5C1098.1,286.2,1088.4,281,1077.9,281.2c-9,0.2-9,12.9,0,12.7
				c6-0.2,10.5,2.8,9.5,8.4c-1.2,6.8-9.4,6.9-15.7,7.2c-30.5,1.6-61.1,3.2-91.6,4.7c-61.8,3.2-123.7,6.4-185.4,9.6
				c-31.3,1.6-62.5,3.2-93.8,4.8c-6.1,0.3-17.6,3-20.1-4c-1.5-4.1,1.1-8.8,6-10.3c5.7-1.7,13.2-1,19.1-1.3c8-0.4,16-0.8,24-1.2
				c15.7-0.8,31.3-1.6,47-2.4c30.5-1.6,61.1-3.2,91.6-4.7c69.8-3.6,139.7-7.2,209.5-10.8C1086.8,293.5,1086.9,280.8,1077.9,281.2z"
				/>
		</g>
	</g>
	<g>
		<path class="st1" d="M734.4-35.8c-15-2.5-32.1,3.6-38.3,15.5c-1.9,3.6-1.5,7.6,2.1,10.2c-3.2,1.6-5.2,4.6-3.4,8.4
			c5.3,11.9,19.4,19.8,35.1,18.8c16.5-1,28.3-12.2,29-25.5C759.6-21.1,749.9-33.2,734.4-35.8z M729.1,1.1c-6,0.6-13.3-2.3-15.4-7.1
			c-0.8-1.6-1.9-2.8-3.2-3.7c1.1-0.6,2-1.5,2.5-2.5c5.5-10.6,26-11.2,26.3,2.3C739.5-4.7,735.9,0.5,729.1,1.1z"/>
	</g>
	<path class="st1" d="M723.1-28.5c-27.7,0-27.8,35.4,0,35.4C750.8,6.9,750.9-28.5,723.1-28.5z"/>
</g>
</svg>
