<?xml version="1.0" encoding="utf-8"?>
<!-- Generator: Adobe Illustrator 19.1.0, SVG Export Plug-In . SVG Version: 6.00 Build 0)  -->
<svg version="1.1" id="Layer_1" xmlns="http://www.w3.org/2000/svg" xmlns:xlink="http://www.w3.org/1999/xlink" x="0px" y="0px"
	 viewBox="0 0 556.5 259.5" style="enable-background:new 0 0 556.5 259.5;" xml:space="preserve">
<style type="text/css">
	.st0{fill:#ED1C24;}
</style>
<g>
	<g>
		<g>
			<path class="st0" d="M202.5,121.9c-3.6-4.8-10.1-2-14.5,0c-5.1,2.3-9.5,5.6-13.4,9.3c0.4-1.2,0.8-2.3,1.1-3.5
				c1.1-4-4.5-7.6-7.3-4.2c-7.2,8.6-14.6,17-22.2,25.1c-0.5-0.5-1.1-0.9-1.9-1c-7.7-1-15.1-0.4-22.5,1
				c21.9-23.5,44.2-46.9,63.6-72.4c3.7-4.8,7.2-10.9,5.2-17.2c-2-6.1-8.4-7.5-14-5.7c-6.9,2.3-13.6,6.7-19.8,10.4
				c-6.6,3.9-13.1,8.1-19.3,12.5c-12.9,9-25,19.1-36.3,30c-11,10.7-22.5,22.3-30.3,35.7c-3.4,5.7-7.7,13.9-2.3,19.8
				c4.6,5,12.1,4.7,18.2,3.9c3-0.4,6.1-1,9.1-1.7c-20.3,21.9-40.6,43.8-61,65.7c-3.8,4.1,2.4,10.2,6.2,6.1
				c23.5-25.3,47-50.7,70.5-76c8-2.2,16-4,24.2-4c-8.5,12.4-20.4,22-34.6,27.4c-5.2,2-2.8,10.4,2.4,8.4c9.4-3.6,18-8.8,25.5-15.3
				c1.2,0.2,2.6-0.1,3.7-1.2c8.7-8.6,17.2-17.4,25.5-26.5c-7.8,16.1-17.1,31.6-21.9,49c-1,3.8,3.2,6.6,6.4,4.8c0,0,0,0,0,0
				c0.7-0.8,1.2-1.8,1.7-3c0.7-1.6,1.2-3.8,2-5.5c2.5-7.4,5.7-14.5,9.2-21.4c0.3,2.3,1.5,4.1,4.5,4.6c4.7,0.7,10.3-5.9,13.4-8.7
				c10-9,18.7-19.5,25.5-31.1C201.6,133,206.2,126.7,202.5,121.9z M107.2,151.7c-0.2,0.2-0.3,0.4-0.5,0.6c-0.9,0.2-1.8,0.5-2.6,0.7
				c-7,1.9-14.2,4-21.4,4.5c-1.9,0.1-4.4,0.4-6.1-0.5c-3.8-1.9,0-7.2,1.5-9.8c6.9-12.1,17.2-22.5,27-32.3c9.4-9.3,19.5-18.1,30.1-26
				c10.9-8.2,22.4-15.6,34.4-22.2c2.9-1.6,5.8-3.5,8.9-4.6c4.2-1.5,4.7,1.1,3.1,4.6c-3.2,6.6-9.3,12.5-14,18.1
				C148.3,107.8,127.6,129.6,107.2,151.7z M192,132.2c-1.1,1.9-2.3,3.8-3.5,5.6c-1,1.9-2.1,3.8-3.4,5.5c-2,4.5-6.1,8.2-9,12
				c-1.9,2.4-4.3,5.7-7.3,7.1c-0.8,0.7-1.7,1.3-2.7,1.7c-0.2,0.1-0.3,0.1-0.5,0.2c0,0,0,0,0,0c0,0,0,0,0,0c0,0,0,0,0,0
				c-1.9,0.5-3.9-0.7-3.5-3c0.2-1,0.6-1.8,1.1-2.7c-0.1-0.1-0.1-0.2-0.2-0.3c0.3-0.2,0.6-0.5,0.9-0.9c5.5-7,10.7-14.9,17.3-20.9
				c2.9-2.6,6.2-4.8,9.7-6.5c0.8-0.4,1.7-0.8,2.5-1.1C193,130.1,192.5,131.2,192,132.2z"/>
			<g>
				<path class="st0" d="M203.2,121.2c-7.9-8.7-23.3,3.7-29.3,9.3c0.6,0.3,1.1,0.6,1.7,1c1.2-3.7,2.3-8-2.2-9.9
					c-5.5-2.3-9.4,5.7-12.3,9c-2.8,3.3-5.7,6.5-8.6,9.8c-2.1,2.3-4.4,6.2-7.3,6.5c-3.5,0.4-7.6-0.8-11.2-0.6
					c-4.1,0.2-8.2,0.7-12.3,1.4c0.3,0.6,0.6,1.1,1,1.7c17.6-18.9,35.4-37.7,51.9-57.6c3.7-4.4,7.3-8.9,10.7-13.5
					c3.2-4.1,6.5-8.7,7-14.1c0.6-7.3-4.5-12.9-11.8-12.5c-9.9,0.6-19.9,8.7-28.1,13.7c-10.4,6.4-20.4,13.4-30,21
					c-18.2,14.5-36.7,31.2-49.6,50.6c-4.5,6.8-11.7,17.8-4.9,25.4c6.8,7.6,19.8,4.3,28.2,2.4c-0.3-0.6-0.6-1.1-1-1.7
					c-11.7,12.7-23.5,25.3-35.2,38c-5.9,6.3-11.7,12.7-17.6,19c-2.7,2.9-5.8,5.7-8.2,8.9c-1,1.3-1.6,2.7-1.3,4.3
					c0.4,2.6,3,4.9,5.7,4.7c1.8-0.1,2.9-1.2,4-2.4c3-3.1,5.9-6.3,8.8-9.5c12-12.9,24-25.8,35.9-38.7c6.6-7.1,13.1-14.1,19.7-21.2
					c1.7-1.8,3.3-3.9,5.4-5.2c2.1-1.3,4.5-1.7,6.9-2.2c5.4-1.2,10.9-2,16.5-2.1c-0.3-0.5-0.6-1-0.9-1.5
					c-7.6,10.9-17.8,19.7-29.9,25.3c-3.1,1.4-7.1,2.2-7.7,6.2c-0.3,2.6,1,5.3,3.6,6c3.8,1,9.9-3.1,13-4.8c2.9-1.6,5.8-3.3,8.5-5.2
					c2.3-1.6,4.5-3.9,7-5c1.9-0.9,3.1-1.1,4.7-2.6c2.9-2.6,5.5-5.5,8.2-8.2c5.6-5.8,11.1-11.6,16.6-17.6c-0.5-0.4-1-0.8-1.6-1.2
					c-4.7,9.7-9.9,19.1-14.3,28.9c-2,4.4-3.9,8.9-5.5,13.5c-1,2.9-3.1,6.9-2,10c1.4,4.1,6.9,4.7,9.1,1.1c2.1-3.5,3-7.8,4.5-11.6
					c2.2-5.8,4.8-11.4,7.5-17c-0.6-0.1-1.2-0.2-1.8-0.2c3.1,15.6,23.5-7.1,27.1-11c6.3-6.6,11.9-13.9,16.7-21.7
					c3.3-5.4,8.6-12.2,4.8-18.6c-0.7-1.1-2.4-0.1-1.7,1c3.5,5.8-2.6,13.2-5.7,18c-3.6,5.6-7.6,10.9-11.9,15.9
					c-3.7,4.2-7.7,8-11.8,11.9c-2.7,2.6-13.5,13.8-15.5,3.9c-0.2-0.8-1.5-1-1.8-0.2c-2.9,6-5.7,12-8.1,18.3
					c-1.1,2.9-1.8,7.3-3.7,9.8c-3.1,4.4-5.2-0.6-5.4-3.9c-0.1-1.8,1.4-4.3,1.9-6c5.1-14.3,12.7-27.5,19.3-41.1
					c0.5-1-0.8-2.1-1.6-1.2c-3.9,4.3-7.8,8.6-11.9,12.8c-3.9,4.1-7.8,8.9-12.2,12.4c-1.9,1.5-3.9,1.8-5.7,3.1
					c-2.4,1.8-4.6,3.7-7,5.4c-4.5,3.1-9.4,5.8-14.4,7.9c-1.9,0.8-2.6,1.4-4.7,0.7c-1.9-0.7-3.3-2.2-1.8-4.5c1.1-1.7,5.1-2.7,6.9-3.6
					c4.2-2,8.2-4.4,11.9-7.1c7-5.1,13-11.4,18-18.6c0.4-0.6-0.1-1.5-0.9-1.5c-4.2,0.1-8.3,0.5-12.4,1.2c-3.6,0.7-9.1,1-12.3,2.9
					c-3.1,1.8-5.9,6.3-8.3,8.9c-3.2,3.4-6.3,6.8-9.5,10.2c-12.9,13.9-25.8,27.8-38.6,41.6c-3.4,3.7-6.8,7.3-10.2,11
					c-1.1,1.2-2.6,3.7-4.1,4.4c-3.7,1.5-5.6,0.4-5.6-3.3c1-1.6,2.2-3,3.5-4.3c6.2-6.9,12.6-13.6,19-20.4
					c13.1-14.1,26.2-28.2,39.3-42.3c0.7-0.7,0-1.9-1-1.7c-8.1,1.8-24.7,6-28.2-5.2c-2.7-8.6,7.3-20.3,12.1-26.6
					c11.8-15.3,26.5-28.8,41.4-41c15.3-12.4,32.2-24.7,50-33.3c4.2-2,9.2-4.3,13.9-2.7c7.5,2.6,5.8,12,2.7,17.3
					c-5.3,9.1-13.1,17.3-19.9,25.3c-14.9,17.5-30.7,34.3-46.4,51.1c-0.7,0.8,0,1.8,1,1.7c3.9-0.7,7.8-1.2,11.8-1.4
					c3.3-0.1,9.1-0.8,11.8,1.3c0.3,0.3,0.9,0.1,1.2-0.2c4.6-5,9.2-10.1,13.7-15.2c2-2.3,4.1-4.7,6.1-7.1c1.3-1.5,5.5-7.9,8.1-1.2
					c0.6,1.5-0.7,3.8-1.1,5.1c-0.3,1,1,1.6,1.7,1c5.1-4.7,19.7-16.8,26.5-9.3C202.7,123.5,204.1,122.1,203.2,121.2z"/>
				<path class="st0" d="M106.5,151c-1,1.1-3.9,1.3-5.3,1.7c-2.1,0.6-4.1,1.1-6.2,1.6c-2.4,0.6-4.8,1.1-7.2,1.5
					c-1.7,0.3-6.6,1.5-8.3,0.7c-0.5-0.7-1.1-1.3-1.6-2c-1.9-1.1-2.2-2.5-0.7-4c0.3-0.5,0.6-1,0.9-1.6c0.8-1.5,1.7-2.9,2.6-4.3
					c2.8-4.4,5.9-8.5,9.3-12.5c11.4-13.3,24.4-25.5,38-36.5c14.6-11.7,30.5-22.5,47.2-31c1-0.5,2.5-1.5,3.6-1.6
					c3.7-0.3,2.6,0.5,2.3,2.2c-0.3,1.9-2.1,4.1-3.2,5.7c-2.6,3.8-5.8,7.2-8.9,10.7c-6.2,7.1-12.1,14.3-18.3,21.3
					C136.2,119.2,121.3,135,106.5,151c-0.9,0.9,0.5,2.4,1.4,1.4c16.8-18,33.7-36,49.8-54.6c7.2-8.2,15-16.4,21.3-25.3
					c1.5-2.1,7.9-11.2,1.7-12c-3.3-0.4-7.6,2.9-10.2,4.4c-5.3,3-10.7,6-15.9,9.3c-9.5,5.9-18.6,12.4-27.3,19.4
					c-17.1,13.7-34.7,29.5-46.9,47.8c-2.6,3.8-11.2,14.6-2.7,16.9c4.7,1.3,11.4-0.6,16.1-1.6c3-0.7,5.9-1.5,8.9-2.3
					c1.8-0.5,4.1-0.6,5.3-2C108.8,151.4,107.3,150,106.5,151z"/>
				<path class="st0" d="M191.1,131.7c-4,6.7-7.8,13.5-12.9,19.4c-2.2,2.6-4.2,5.5-6.6,7.9c-1.3,1.3-3,2.6-4.6,3.5
					c-4.1,2.3-0.8-0.3-0.5,1.5c-0.1-0.4-0.6-0.8-1-0.7c-0.5-1.4-1-2.8-1.5-4.1c0.2-0.3,0.2-0.7,0-1c0,0.1,11.1-13.7,12-14.8
					c4.9-5.7,10.6-10.5,17.7-13.4c-0.4-0.5-0.8-1-1.1-1.5C192.2,129.5,191.7,130.6,191.1,131.7c-0.6,1.1,1.1,2.2,1.7,1
					c0.6-1.1,1.1-2.1,1.6-3.2c0.3-0.7-0.2-1.8-1.1-1.5c-6.3,2.6-11.7,6.4-16.3,11.4c-5.3,5.6-9.1,13-14.7,18.2
					c-0.3,0.3-0.4,0.9-0.2,1.2c0,0-1.3,3.5-0.7,4.7c0.4,0.8,3.4,3,3.1,1c0,0.3,0.4,0.6,0.7,0.7c1.4,0.3,3-1.4,4-2
					c3.5-2.3,5.7-5.2,8.4-8.4c5.8-7,10.5-14.2,15.1-22.1C193.5,131.6,191.8,130.6,191.1,131.7z"/>
			</g>
		</g>
		<g>
			<path class="st0" d="M511.5,108.2c-14.2-11.7-37.9-11.5-55.2-9.2c-20.9,2.7-40.6,10-59.5,18.8c-5.2,2.4-0.6,9.9,4.6,7.5
				c27.3-12.8,58.9-23.2,89.5-16.7c6,1.3,12.4,3.3,16.6,7.9c4.9,5.4,5.5,13.2,3.4,19.9c-4,13-17.1,21.6-28.4,28
				c-20,11.2-43.6,17.6-67,19.4c8.6-22.9,20.6-44.5,35.9-63.9c3.4-4.4-2-9.9-6.3-6.1c-17.4,15.4-35.3,30.2-54,44.1
				c-4.5,3.4,0,10.9,4.6,7.5c10.3-7.7,20.5-15.7,30.4-23.9c-8.1,13.6-14.8,27.9-20.1,42.7c-3.9,0.1-7.7,0.1-11.5-0.1
				c-13.4-0.6-30.8-2.6-41.3-11.9c-2.3-2.1-4-4.4-5.1-6.8c0.3-0.3,0.6-0.6,0.9-0.9c1.4-1.7,1.5-4.3-0.5-5.6
				c-0.7-0.5-1.5-0.6-2.3-0.5c-0.1-1.3-0.1-2.6,0.1-3.9c0.6-7.7,4.3-15.7,8.6-22c8.7-12.7,20.5-23.6,33.5-32.1
				c6.5-4.2,13.3-7.9,20.5-10.9c2.7-1.1,22.9-9.3,22.4-3.9c-0.4,5.6,8.4,5.5,8.9-0.1c0.6-7.9-7.5-11.6-14.5-10.5
				c-8,1.2-16,4.6-23.4,7.9c-15.2,6.8-29.1,16.4-40.8,28.1c-11.5,11.5-23.3,26.2-24.3,42.9c-0.2,2.9,0,5.6,0.6,8.2
				c-3.7,2.8-7.6,5.4-11.4,8c-3.6,2.4-7.2,4.7-10.9,6.9c-1.6,0.9-3.9,2.9-5.8,3.1c-3.3,0.4-2.6-1.6-2.2-4.2
				c3.2-17.8,13.1-34.5,21.9-50.1c10.9-19.5,22.8-38.5,34.8-57.3c26.1-2.6,52.2-5,78.3-7c5.7-0.4,5.6-9.1-0.1-8.7
				c-24.1,1.9-48.2,4-72.3,6.4c6.5-10.1,13-20.2,19.5-30.3c3-4.8-4.7-9.1-7.7-4.3c-7.6,11.9-15.3,23.8-22.9,35.8
				c-8.2,0.8-16.3,1.7-24.5,2.6c3.7-7.3,7.5-14.5,11.3-21.7c2.7-5.1-4.4-8.8-7.7-4.3l-20.4,27.9c-40,4.6-80,9.8-119.8,15.7
				c-5.6,0.8-3.1,9.2,2.5,8.4c36.7-5.5,73.5-10.3,110.4-14.6c-10.7,14.6-21.4,29.3-32.1,43.9c-9.7,13.3-19.2,26.9-29.3,40
				c-1.7,2.2-5.5,8.6-8.2,9.5l-1,1c-0.7-1.2-0.7-2.5,0-3.7c0.4-1.8,1.4-3.7,2-5.4c2.5-6.8,5.1-13.6,7.6-20.4
				c0.2-0.2,0.4-0.4,0.6-0.7c1-1.2,1.3-2.6,1-3.8c1-4.7-6.9-6.5-8.8-1.5c-0.2,0.5-0.4,1-0.5,1.4c-10.9,12.3-22.9,23.8-36,34
				c-1.3,1-2.6,1.9-3.8,2.9c1.4-2.4,2.5-5.4,4-7.7c4.5-6.8,10.4-12.6,17.2-17.2c3.9-2.6,1.8-7.4-1.8-7.9c-3.3,1.5-6.7,3-9.9,4.8
				c-0.7,0.4-1.3-0.1-1.5-0.7c-0.2,0.1-0.4,0.2-0.6,0.3c0.2-0.2,0.4-0.4,0.6-0.6c0-0.2,0.1-0.4,0.3-0.6c4.2-4.5,9.1-8.3,13.3-12.9
				c2.8-3.1,5.4-6.3,8.4-9c1-1,1.9-1.9,2.9-2.8c4.8-4.6,9.8-9.5,15.1-14c0.1-1,0-2-0.6-3c-1.7-2.9-4.7-2.4-7.9-1
				c-3.5,3.1-6.9,6.3-10.3,9.4c-9.4,8.7-18.3,17.8-27,27.1c-2,1.9-3.9,3.9-5.8,5.9c-1.7,1.7-3.7,3.6-4.6,5.9c-0.3,0.6-0.5,1.3-0.5,2
				c-0.4,4.4,3.4,6.9,7.6,6.2c-1.3,1.7-2.5,3.4-3.6,5.2c-3.2,5.1-12.5,21.8,0.2,22.6c4.7,0.3,9.3-4.7,12.7-7.3
				c4.7-3.6,9.3-7.4,13.8-11.3c3.2-2.8,6.4-5.8,9.5-8.8c-0.8,2.2-1.5,4.4-2.1,6.6c-1.8,6.1-0.2,15.1,8.1,15.1
				c7.4,0,13.2-9.9,17.1-14.9c5.9-7.7,11.6-15.7,17.3-23.5l38.4-52.6c-14.4,28.8-28.2,57.8-41.5,87.1c-2.3,5.1,5.4,9.4,7.7,4.3
				c16.2-35.7,33.3-71.1,51.1-106.1c7.8-0.9,15.5-1.7,23.3-2.5C343.8,84.2,334.7,99,326,114c-8.5,14.7-17,29.8-23,45.7
				c-2.4,6.4-5.9,15-4.6,21.9c1.1,5.9,6.7,8.6,12.4,7.3c7.7-1.8,15.1-8,21.6-12.3c2.9-1.9,5.7-4,8.5-6c4.6,8.1,13,13.8,22.9,17.1
				c12.5,4.1,25.8,5.5,39,5.3c-2.7,8.5-4.9,17.1-6.7,25.8c-1.1,5.5,7.5,7.7,8.6,2.2c1.9-9.6,4.5-19.1,7.5-28.5c3-0.2,6-0.5,8.9-0.8
				c17.9-2.1,35.6-6.2,52.2-13.2c15.1-6.4,31.2-15.4,40.7-29C522.8,137.1,524.1,118.5,511.5,108.2z"/>
			<g>
				<path class="st0" d="M512.2,107.5c-16.7-13.2-41-12-60.8-8.8c-14.3,2.3-28.1,6.7-41.4,12.2c-2.4,1-4.7,2-7,3
					c-2.4,1.1-5.9,2-7.9,3.8c-2,1.9-2,4.8-0.2,6.9c1.7,2.1,4.2,2.5,6.7,1.6c6.6-2.3,12.9-5.8,19.5-8.3c13.3-5,27.2-8.8,41.3-10
					c12.8-1.1,29.9-1.1,40.9,6.4c13.9,9.5,6.2,27.7-3.6,36.9c-10.6,9.8-24.8,16.7-38.2,21.6c-14.9,5.5-30.5,8.7-46.2,9.9
					c0.3,0.4,0.6,0.8,1,1.3c6.1-16,13.7-31.4,23-45.8c2.2-3.4,4.5-6.8,6.9-10.1c2-2.8,5.4-5.8,6.6-9.1c1.2-3.3-0.7-7.2-4.4-7.5
					c-1.7-0.1-2.9,0.6-4.3,1.5c-3.8,2.6-7.1,6.3-10.6,9.3c-6.9,5.9-13.9,11.8-21,17.5c-7.2,5.8-15.4,10.9-22.1,17.2
					c-2.5,2.3-3.3,5.8-0.8,8.5c4.2,4.7,10.1-2,13.3-4.5c8-6.1,15.9-12.4,23.7-18.8c-0.5-0.4-1-0.8-1.6-1.2
					c-5.9,10-11.2,20.4-15.6,31.1c-1.2,2.8-2,5.8-3.4,8.4c-1.7,3.5-4.4,2.8-8,2.7c-5.5-0.1-11.1-0.4-16.5-1.2
					c-10.2-1.4-22.3-4.1-29.4-12.1c-1.7-1.9-2.7-3.1-2.2-5.4c0.3-1.2,0.9-1.8,0.8-3.1c-0.2-2.7-2.3-3.9-4.7-4c0.3,0.3,0.7,0.7,1,1
					c-0.6-13.1,7.4-24.8,15.5-34.3c7.6-8.8,16.5-16.4,26.2-22.8c7.6-5,15.8-9.3,24.4-12.5c2.9-1.1,14.9-6.5,17.1-3.3
					c0.5,0.7,0.2,2.2,0.8,3c0.5,0.8,1.3,1.3,2.2,1.7c1.8,0.7,4.2,0.4,5.8-0.8c4.3-3.3,1.7-10.1-1.8-12.9c-6.6-5.1-15.8-2.2-22.8,0.3
					c-10.2,3.6-20.1,8.3-29.2,14c-17.4,10.9-35.1,26.7-44.1,45.5c-1.9,3.9-3.4,8.1-4.1,12.4c-0.4,2.2-0.7,4.5-0.7,6.8
					c0,2.7,1.1,5.1-1,7.2c-3.7,3.8-9.5,6.6-14,9.5c-2.4,1.5-4.9,3-7.3,4.5c-0.7,0.4-1.7,1.4-2.4,1.5c-4.5,1.1-3.2-1.9-2.8-3.8
					c2.5-12.1,7.9-23.5,13.7-34.3c5.8-10.8,12-21.6,18.3-32.1c6.2-10.4,12.6-20.8,19.1-31c1.6-2.5,3.2-6.7,6.2-7.8
					c2.6-1,7-0.7,9.8-1c6.5-0.6,13-1.3,19.6-1.8c14.4-1.3,28.7-2.5,43.1-3.7c3.1-0.2,6.7,0,8.4-3.1c1.1-1.9,1-4.6-0.5-6.3
					c-2.4-2.7-6.8-1.4-9.9-1.1c-7.5,0.6-15,1.2-22.5,1.9c-14.7,1.3-29.3,2.6-43.9,4.1c0.3,0.5,0.6,1,0.9,1.5
					c3.4-5.3,6.8-10.6,10.3-16c1.7-2.7,3.4-5.3,5.1-8c1.5-2.3,3.7-4.8,4.6-7.4c1.4-4.1-3-7.9-7-6.6c-3.4,1.1-5.3,6.1-7.1,8.8
					c-3.5,5.4-6.9,10.8-10.4,16.2c-1.7,2.7-3.5,5.4-5.2,8.1c-2.2,3.5-3.8,4.5-7.9,5c-6.3,0.6-12.6,1.3-18.8,2c0.3,0.5,0.6,1,0.9,1.5
					c3.2-6.1,6.3-12.3,9.5-18.4c1.5-2.8,3.8-6.2,1.3-9.2c-3.3-4-7.6-1.3-10,1.9c-3.9,5.2-7.7,10.5-11.5,15.8c-1.8,2.5-3.7,5-5.5,7.5
					c-2,2.8-1.8,3-5.4,3.2c-15,0.7-30.3,3.6-45.2,5.5c-14.5,1.9-29,3.8-43.5,5.8c-7.2,1-14.4,2-21.6,3.1c-3,0.4-7.8,0.1-9.4,3.3
					c-1,2-0.2,4.6,1.3,6.2c2.9,3,7.5,1.3,11.1,0.8c34.7-5.1,69.4-9.6,104.2-13.7c-0.3-0.5-0.6-1-0.9-1.5
					c-12.9,17.7-26,35.4-38.8,53.2c-10,13.9-19.5,29.2-31.6,41.1c0.6,0.1,1.1,0.3,1.7,0.4c-1-2.7,1-6.1,2-8.5
					c1.1-2.8,2.1-5.6,3.1-8.3c1.2-3.1,2.2-6.2,3.5-9.3c0.6-1.6,1.9-3.1,2.4-4.7c1.4-4.4-1.2-9.2-6.3-8.2c-2.2,0.5-3,1.8-4.2,3.6
					c-3.2,5.1-8,9.4-12.2,13.7c-8.7,8.6-17.9,16.7-27.7,24c0.5,0.5,0.9,0.9,1.4,1.4c3.3-6,6.1-11.4,11-16.4c2.3-2.3,4.7-4.4,7.3-6.4
					c1.6-1.2,3.7-2.3,4.6-4.1c1.2-2.3,0.2-5.2-1.9-6.6c-1-0.6-1.9-0.8-3-0.7c-1.5,0.1-9.3,5.4-10.1,4.3c-0.3-0.4-0.8-0.3-1.2-0.2
					c-0.2,0.1-0.4,0.2-0.6,0.3c0.4,0.5,0.8,1,1.2,1.6c10.8-11.5,22.1-22.8,33.6-33.6c3.1-2.9,10.8-7,5.6-11.8
					c-3.6-3.3-8.2-0.2-11.1,2.4c-12.9,11.7-24.7,24.2-37,36.5c-3.4,3.4-9.4,7.9-8.8,13.4c0.5,4.4,4.5,6.3,8.6,6
					c-0.3-0.5-0.6-1-0.9-1.5c-4.1,5.4-16,22-7.2,28c5.7,3.9,11.8-1.1,16.1-4.6c8.6-7.1,17.2-13.9,25.2-21.7c-0.6-0.3-1.1-0.6-1.7-1
					c-1.9,5.6-4.3,11.6-1.7,17.4c1.9,4.1,6.1,6.2,10.6,5.3c5.7-1.2,9.6-6.6,12.9-11c5.6-7.7,11.4-15.3,16.9-23
					c9.9-13.7,19.9-27.3,29.8-40.9c4-5.5,8-11,12-16.5c-0.6-0.3-1.2-0.7-1.7-1c-8.4,16.7-16.5,33.6-24.5,50.5
					c-3.9,8.3-7.8,16.6-11.7,25c-1.8,3.8-4,7.8-5.4,11.8c-0.6,1.7-0.7,3.2,0.2,4.9c1.4,2.6,5.1,4.1,7.7,2.3c2.2-1.5,3-5.1,4.1-7.4
					c1.9-4.2,3.8-8.3,5.7-12.5c7.8-16.9,15.9-33.7,24.1-50.5c4.6-9.4,9.3-18.8,14-28.1c1.1-2.2,2.1-5,3.5-7c1.9-2.6,4.2-2.5,7.3-2.9
					c5.5-0.6,11-1.2,16.5-1.7c-0.3-0.5-0.6-1-0.9-1.5c-18.4,29-38.3,58.7-50.4,91c-3.1,8.2-10.1,26.1,3.1,29.6
					c5.7,1.5,11.6-1.6,16.3-4.4c7-4.2,13.7-9.2,20.3-14c-0.5-0.1-0.9-0.2-1.4-0.4c12.3,20.5,41.3,23.1,62.7,22.9
					c-0.3-0.4-0.6-0.8-1-1.3c-1.5,4.8-2.9,9.7-4.2,14.6c-0.9,3.7-2.9,8.5-2.6,12.4c0.2,3.4,3.5,6,6.9,5.3c1.6-0.3,2.7-1.2,3.4-2.6
					c1.9-3.5,2-9,3-12.9c1.1-4.4,1.9-10.1,4-14.2c1.9-3.5,9-2.7,12.7-3.2c18.8-2.5,37.2-7.4,54.5-15.4c14.1-6.6,29.2-15.7,37.1-29.6
					C524.1,134.3,523.8,117.5,512.2,107.5c-1-0.8-2.4,0.6-1.4,1.4c9.3,8.1,10.9,20.7,6.7,32c-4.4,11.8-15.1,20.6-25.5,27
					c-23.8,14.6-52,21.5-79.7,23.6c-0.5,0-0.8,0.3-1,0.7c-1.6,5-3.1,10-4.4,15c-0.8,3.2-1.7,14.6-5.1,15.8c-3.7,1.3-4.8-3.4-4.3-5.9
					c0.5-2.5,1.1-5,1.7-7.4c1.3-5.6,2.9-11,4.6-16.5c0.2-0.6-0.3-1.3-1-1.3c-20.7,0.2-49.1-2.1-61-21.9c-0.3-0.4-0.9-0.7-1.4-0.4
					c-5.5,4-11,7.9-16.7,11.7c-5.1,3.4-12.5,8.6-19,6.3c-9-3.1-5.3-15.3-3-21.8c2.3-6.8,5.1-13.5,8.1-20
					c12.4-26.4,28.4-51.2,44-75.8c0.4-0.6-0.1-1.6-0.9-1.5c-5.2,0.5-10.3,1.1-15.5,1.6c-2.5,0.3-6.6-0.1-8.6,1.3
					c-1.5,1-2.7,5.4-3.6,7c-1.2,2.3-2.4,4.7-3.5,7c-2.3,4.7-4.7,9.4-7,14.1c-9.1,18.5-18.1,37.1-26.8,55.7
					c-2.1,4.4-4.1,8.9-6.2,13.4c-1,2.2-1.8,5.1-3.3,7.1c-0.5,2.3-2.2,3.4-5,3.1c-2.4-1.6-2.7-3.8-0.9-6.4
					c3.4-9.8,8.8-19.3,13.2-28.6c8.9-19,18.1-37.9,27.5-56.7c0.6-1.2-1-2-1.7-1c-18.2,24.9-35.9,50.1-54.6,74.6
					c-4.2,5.5-9.5,15.9-17.4,16c-11.3,0.2-7.1-14.4-5-20.4c0.3-1-1-1.6-1.7-1c-5.7,5.5-11.5,10.7-17.6,15.6
					c-4.7,3.8-13.5,13.8-20.1,10.8c-8.9-4,3.5-21.2,6.9-25.7c0.4-0.6-0.2-1.6-0.9-1.5c-4.8,0.4-8.1-3.4-5.6-8
					c1.3-2.3,3.6-4.3,5.5-6.2c4-4.1,8-8.3,11.9-12.4c8.2-8.5,16.8-16.7,25.5-24.7c0.8-0.8,1.7-1.6,2.6-2.4c2.9-2.2,3.1-2.4,5.2,0.4
					c2.3,3,1.3,2.6-1.1,4.8c-0.9,0.9-1.9,1.7-2.8,2.6c-3.9,3.7-7.8,7.4-11.6,11.1c-4,3.8-7.4,8.2-11.3,12
					c-3.6,3.5-7.2,6.9-10.6,10.5c-0.8,0.9,0.2,2,1.2,1.6c-0.6,0.3,1.1,0.5,1.1,0.5c1.6-0.1,2.8-1.2,4.2-1.9c1.1-0.5,2.2-1.2,3.3-1.6
					c0.6-0.3,1.1-0.5,1.7-0.8c3.9-0.1,4.7,1.1,2.4,3.7c-1.4,3-2.9,3.8-5.3,5.8c-7.3,6.1-11.7,13-16.1,21.2c-0.4,0.8,0.5,2,1.4,1.4
					c6.8-5,13.3-10.4,19.5-16.1c6.9-6.3,14.2-12.9,20-20.2c0.4-0.5,2.8-4.3,2.2-3.8c2.6-2.4,5.8-0.6,6.1,2.4c0,0.5-1.8,4.8-2.3,6
					c-0.8,2.2-1.6,4.3-2.4,6.5c-1.7,4.4-3.3,8.9-5,13.3c-1.1,2.8-2.5,5.3-1.4,8.3c0.3,0.7,1.1,1,1.7,0.4
					c11.9-11.6,21.1-26.4,30.8-39.9c13.2-18.3,26.6-36.5,39.9-54.7c0.4-0.6-0.1-1.6-0.9-1.5c-24.1,2.8-48.2,5.8-72.3,9.1
					c-12.1,1.7-24.3,4-36.4,5.2c-2.6,0.3-4.3,0.7-5.7-1.7c-1.2-2.1-0.7-3.3,1.8-4.4c2.2-1,5.4-0.8,7.8-1.2c6.5-1,13.1-1.9,19.6-2.8
					c24.8-3.5,49.5-6.7,74.4-9.7c3.3-0.4,6.6-0.8,9.8-1.2c2.2-0.3,6,0.2,7.9-0.9c0.8-0.5,1-0.8,1.6-1.5c3.1-3.9,5.9-8.1,8.8-12.1
					c3.3-4.5,6.4-9.2,9.9-13.6c0.3-0.4,0.5-0.9,0.9-1.2c1.3-1.2,2.4-2.5,4.7-1.1c3.4,2.1,0.6,5.6-0.5,7.7
					c-3.2,6.1-6.4,12.2-9.5,18.4c-0.3,0.6,0.1,1.6,0.9,1.5c5-0.5,10-1.1,15.1-1.6c2.4-0.2,7.8,0.2,9.9-1.1c1-0.6,1.8-2.6,2.4-3.6
					c1.4-2.2,2.8-4.3,4.2-6.5c2.4-3.8,4.9-7.6,7.3-11.4c2.4-3.8,4.8-7.6,7.3-11.4c0.9-1.6,2-3,3.2-4.4c3.6-1,5.2,0.4,4.8,4.4
					c-0.3,1.9-3,4.7-4.1,6.4c-5.1,8-10.3,16-15.4,23.9c-0.4,0.6,0.1,1.6,0.9,1.5c12-1.2,24.1-2.3,36.1-3.4c5.5-0.5,11.1-1,16.6-1.4
					c3.3-0.3,6.5-0.5,9.8-0.8c2.9-0.2,7-1.3,9.8-0.8c3.7,0.7,4.5,5,0.8,6.6c-2.4,1-6.9,0.6-9.5,0.8c-6.2,0.5-12.4,1-18.6,1.6
					c-12.1,1-24.1,2.1-36.2,3.3c-2.9,0.3-5.9,0.6-8.8,0.9c-1.8,0.2-4.6-0.1-6.1,0.6c-1.1,0.5-1.5,1.9-2.1,2.9
					c-1.9,3-3.8,5.9-5.7,8.9c-6.1,9.7-12.2,19.5-18.1,29.4c-10.8,18.3-23,37.2-29.2,57.6c-0.9,3-6.3,15.8,1.1,14.7
					c4-0.6,9-5,12.3-7.1c5.5-3.5,10.8-7.2,16.1-11c0.4-0.3,0.5-0.7,0.5-1.1c-4-22.3,14.2-42.4,29.6-56c8.5-7.5,18-14,28.1-19.1
					c9.1-4.7,20.9-11,31.4-10.9c4.9,0,11.1,2.7,11.1,8.4c0,3.6-4.1,6.5-6.3,2.7c-0.5-0.8-0.5-2.3-1.1-3c-2.4-2.5-7.5-0.7-10.3,0.1
					c-15.1,4.1-29.4,11.9-41.8,21.4c-15.7,12-35.5,31.5-34.6,53.1c0,0.6,0.4,1,1,1c0.4,1.8,0.8,3.5,1.2,5.3
					c-0.3,0.3-0.4,0.8-0.2,1.2c9.8,19.5,40.1,19.6,58.7,19.3c0.5,0,0.8-0.3,1-0.7c5.4-14.8,12.1-28.9,20-42.5c0.6-1-0.7-1.9-1.6-1.2
					c-6.9,5.7-13.9,11.2-21,16.7c-1.5,1.2-3.1,2.4-4.6,3.5c-2.4,1.8-3.7,3.7-6.8,3.1c-7.8-1.5,3.4-8.9,6.1-11
					c12.3-9.4,24.3-19.2,36-29.3c2.7-2.3,6.1-6.5,9.2-8.1c4.2-2,9.5-2.9,5.1,5c-0.8,1.4-2.2,2.9-3.2,4.2c-4.5,6.1-8.7,12.4-12.7,19
					c-7.5,12.6-13.8,25.8-19,39.5c-0.2,0.6,0.4,1.3,1,1.3c25-2,49.6-8.8,71.2-21.6c8.8-5.2,17.9-11.7,22.9-20.9
					c4.1-7.7,5.2-17.9-0.4-25.3c-6.7-8.8-20.4-10.4-30.7-11.1c-12.5-0.9-25.2,0.7-37.3,3.7c-12.9,3.2-24.8,8.5-37.1,13.4
					c-1.5,0.6-3.9,1.9-5.5,1.7c-0.8-0.6-1.6-1.2-2.4-1.8c-0.3-2.8,0.6-4.4,2.9-4.9c2.8-2,6.9-3.1,10-4.4c6.7-2.8,13.6-5.4,20.6-7.6
					c13.6-4.2,27.8-6.8,42.1-7.1c13.5-0.3,28.2,1.5,39.1,10.1C511.8,109.7,513.2,108.3,512.2,107.5z"/>
			</g>
		</g>
		<g>
			<path class="st0" d="M303.6,199.7c-33.1,2.1-66.2,4.2-99.2,6.2c-5.6,0.3-5.5,9.1,0.1,8.7c33.1-2.1,66.2-4.2,99.2-6.2
				C309.2,208.1,309.2,199.4,303.6,199.7z"/>
			<g>
				<path class="st0" d="M303.6,198.7c-20.2,1.3-40.4,2.5-60.5,3.8c-9.9,0.6-19.8,1.2-29.8,1.9c-4.2,0.3-12.1-1-13.8,4.3
					c-0.9,3,0.6,6.3,3.7,6.9c3.4,0.7,7.7-0.3,11.2-0.6c5.3-0.3,10.6-0.7,15.9-1c20.2-1.3,40.4-2.5,60.5-3.8c4.4-0.3,9.9,0.3,14.1-1
					c1.7-0.5,3-1.7,3.6-3.4C309.7,202.1,307.3,198.9,303.6,198.7c-1.3,0-1.3,2,0,2c4.3,0.2,4,5.2,0.8,6.6c-1.8,0.7-4.8,0.4-6.7,0.5
					c-4.6,0.3-9.3,0.6-13.9,0.9c-8.6,0.5-17.2,1.1-25.8,1.6c-8.9,0.6-17.9,1.1-26.8,1.7c-4.3,0.3-8.6,0.5-12.9,0.8
					c-4,0.2-10,1.7-13.9,0.9c-2.5-0.5-4.2-2.5-2.8-5c1.5-2.7,6.1-2,8.7-2.1c4-0.2,7.9-0.5,11.9-0.7c9.3-0.6,18.5-1.2,27.8-1.7
					c17.9-1.1,35.7-2.2,53.6-3.4C304.8,200.6,304.8,198.6,303.6,198.7z"/>
			</g>
		</g>
		<path class="st0" d="M215.8,99.2c-3.8-0.8-8.2,1.1-9.8,4.8c-0.5,1.1-0.4,2.4,0.5,3.2c-0.8,0.5-1.3,1.4-0.9,2.6
			c1.4,3.7,5,6.1,9,5.9c4.2-0.3,7.2-3.8,7.4-7.9C222.2,103.7,219.7,100,215.8,99.2z M214.4,110.6c-1.5,0.2-3.4-0.7-3.9-2.2
			c-0.2-0.5-0.5-0.9-0.8-1.1c0.3-0.2,0.5-0.5,0.7-0.8c1.4-3.3,6.7-3.5,6.7,0.7C217.1,108.9,216.2,110.4,214.4,110.6z"/>
		<path class="st0" d="M212.9,101.4c-7.1,0-7.1,11,0,11C220,112.4,220,101.4,212.9,101.4z"/>
	</g>
</g>
</svg>
